<svg width="680" viewBox="0 0 680 980" xmlns="http://www.w3.org/2000/svg" style="background:#ffffff; font-family: system-ui, -apple-system, sans-serif;">
<defs>
  <marker id="arrow" viewBox="0 0 10 10" refX="8" refY="5" markerWidth="6" markerHeight="6" orient="auto-start-reverse">
    <path d="M2 1L8 5L2 9" fill="none" stroke="#888" stroke-width="1.5" stroke-linecap="round" stroke-linejoin="round"/>
  </marker>
</defs>

<!-- Phase labels -->
<text x="40" y="32" font-size="12" fill="#666" font-weight="600">Phase 1 — 데이터 탐색 (EDA)</text>
<line x1="40" y1="37" x2="640" y2="37" stroke="#e0e0e0" stroke-width="0.5"/>

<!-- Phase 1 boxes -->
<rect x="100" y="50" width="200" height="52" rx="8" fill="#e1f5ee" stroke="#1d9e75" stroke-width="0.5"/>
<text x="200" y="72" text-anchor="middle" font-size="13" fill="#085041" font-weight="500">섹터별 수익률</text>
<text x="200" y="90" text-anchor="middle" font-size="11" fill="#0f6e56">by date (시계열)</text>

<rect x="380" y="50" width="200" height="52" rx="8" fill="#e1f5ee" stroke="#1d9e75" stroke-width="0.5"/>
<text x="480" y="72" text-anchor="middle" font-size="13" fill="#085041" font-weight="500">발행자별 수익률</text>
<text x="480" y="90" text-anchor="middle" font-size="11" fill="#0f6e56">by maturity (현재)</text>

<line x1="200" y1="102" x2="200" y2="130" stroke="#888" stroke-width="1" marker-end="url(#arrow)"/>
<line x1="480" y1="102" x2="480" y2="130" stroke="#888" stroke-width="1" marker-end="url(#arrow)"/>

<rect x="100" y="130" width="200" height="52" rx="8" fill="#e1f5ee" stroke="#1d9e75" stroke-width="0.5"/>
<text x="200" y="152" text-anchor="middle" font-size="13" fill="#085041" font-weight="500">커브 구조 파악</text>
<text x="200" y="170" text-anchor="middle" font-size="11" fill="#0f6e56">steep / flat / inverted</text>

<rect x="380" y="130" width="200" height="52" rx="8" fill="#e1f5ee" stroke="#1d9e75" stroke-width="0.5"/>
<text x="480" y="152" text-anchor="middle" font-size="13" fill="#085041" font-weight="500">신용등급 스프레드</text>
<text x="480" y="170" text-anchor="middle" font-size="11" fill="#0f6e56">등급별 분포 확인</text>

<line x1="300" y1="156" x2="380" y2="156" stroke="#aaa" stroke-width="1" stroke-dasharray="4 3" marker-end="url(#arrow)"/>
<line x1="200" y1="182" x2="200" y2="220" stroke="#888" stroke-width="1" marker-end="url(#arrow)"/>
<line x1="480" y1="182" x2="480" y2="220" stroke="#888" stroke-width="1" marker-end="url(#arrow)"/>
<line x1="200" y1="240" x2="380" y2="240" stroke="#888" stroke-width="1"/>
<line x1="380" y1="240" x2="380" y2="220" stroke="#888" stroke-width="1" marker-end="url(#arrow)"/>

<rect x="220" y="220" width="240" height="52" rx="8" fill="#e1f5ee" stroke="#1d9e75" stroke-width="0.5"/>
<text x="340" y="242" text-anchor="middle" font-size="13" fill="#085041" font-weight="500">롤링효과 유효 구간</text>
<text x="340" y="260" text-anchor="middle" font-size="11" fill="#0f6e56">만기별 추가수익 추정</text>

<!-- Phase 2 -->
<line x1="40" y1="300" x2="640" y2="300" stroke="#ccc" stroke-width="0.5" stroke-dasharray="4 3"/>
<text x="40" y="318" font-size="12" fill="#666" font-weight="600">Phase 2 — 펀드 설계 결정</text>
<line x1="40" y1="323" x2="640" y2="323" stroke="#e0e0e0" stroke-width="0.5"/>

<line x1="340" y1="272" x2="340" y2="335" stroke="#888" stroke-width="1" marker-end="url(#arrow)"/>

<rect x="170" y="335" width="340" height="52" rx="8" fill="#eeedfe" stroke="#534ab7" stroke-width="0.5"/>
<text x="340" y="357" text-anchor="middle" font-size="13" fill="#26215c" font-weight="500">펀드 만기 결정</text>
<text x="340" y="375" text-anchor="middle" font-size="11" fill="#3c3489">EDA 결과 보고 최적 구간 선택</text>

<line x1="340" y1="387" x2="340" y2="415" stroke="#888" stroke-width="1" marker-end="url(#arrow)"/>

<rect x="170" y="415" width="340" height="52" rx="8" fill="#eeedfe" stroke="#534ab7" stroke-width="0.5"/>
<text x="340" y="437" text-anchor="middle" font-size="13" fill="#26215c" font-weight="500">편입자산 구성 규칙 확정</text>
<text x="340" y="455" text-anchor="middle" font-size="11" fill="#3c3489">target 만기, 커브 허용범위, 개수</text>

<!-- Phase 3 -->
<line x1="40" y1="490" x2="640" y2="490" stroke="#ccc" stroke-width="0.5" stroke-dasharray="4 3"/>
<text x="40" y="508" font-size="12" fill="#666" font-weight="600">Phase 3 — 사용자 입력 (Streamlit UI)</text>
<line x1="40" y1="513" x2="640" y2="513" stroke="#e0e0e0" stroke-width="0.5"/>

<line x1="340" y1="467" x2="340" y2="525" stroke="#888" stroke-width="1" marker-end="url(#arrow)"/>

<rect x="60" y="525" width="165" height="68" rx="8" fill="#f1efe8" stroke="#5f5e5a" stroke-width="0.5"/>
<text x="142" y="549" text-anchor="middle" font-size="13" fill="#2c2c2a" font-weight="500">상수 (고정)</text>
<text x="142" y="567" text-anchor="middle" font-size="11" fill="#444441">금통위 일정</text>
<text x="142" y="583" text-anchor="middle" font-size="11" fill="#444441">현금규제비율</text>

<rect x="257" y="525" width="166" height="68" rx="8" fill="#e6f1fb" stroke="#185fa5" stroke-width="0.5"/>
<text x="340" y="549" text-anchor="middle" font-size="13" fill="#042c53" font-weight="500">펀드 파라미터</text>
<text x="340" y="567" text-anchor="middle" font-size="11" fill="#0c447c">개시일, 만기, 설정액</text>
<text x="340" y="583" text-anchor="middle" font-size="11" fill="#0c447c">신용등급 상/하한</text>

<rect x="455" y="525" width="165" height="68" rx="8" fill="#e6f1fb" stroke="#185fa5" stroke-width="0.5"/>
<text x="537" y="549" text-anchor="middle" font-size="13" fill="#042c53" font-weight="500">금통위 시나리오</text>
<text x="537" y="567" text-anchor="middle" font-size="11" fill="#0c447c">레포차입비율</text>
<text x="537" y="583" text-anchor="middle" font-size="11" fill="#0c447c">인상/인하 가정</text>

<!-- Phase 4 -->
<line x1="40" y1="618" x2="640" y2="618" stroke="#ccc" stroke-width="0.5" stroke-dasharray="4 3"/>
<text x="40" y="636" font-size="12" fill="#666" font-weight="600">Phase 4 — 계산 (core/)</text>
<line x1="40" y1="641" x2="640" y2="641" stroke="#e0e0e0" stroke-width="0.5"/>

<line x1="142" y1="593" x2="142" y2="680" stroke="#888" stroke-width="1" marker-end="url(#arrow)"/>
<line x1="340" y1="593" x2="340" y2="680" stroke="#888" stroke-width="1" marker-end="url(#arrow)"/>
<line x1="537" y1="593" x2="537" y2="653" stroke="#888" stroke-width="1"/>
<line x1="537" y1="653" x2="420" y2="653" stroke="#888" stroke-width="1"/>
<line x1="420" y1="653" x2="420" y2="680" stroke="#888" stroke-width="1" marker-end="url(#arrow)"/>

<rect x="60" y="680" width="165" height="52" rx="8" fill="#faece7" stroke="#993c1d" stroke-width="0.5"/>
<text x="142" y="702" text-anchor="middle" font-size="13" fill="#4a1b0c" font-weight="500">편입자산 선택</text>
<text x="142" y="720" text-anchor="middle" font-size="11" fill="#712b13">금리 높은 순 정렬</text>

<rect x="257" y="680" width="166" height="52" rx="8" fill="#faece7" stroke="#993c1d" stroke-width="0.5"/>
<text x="340" y="702" text-anchor="middle" font-size="13" fill="#4a1b0c" font-weight="500">커브/롤링 분석</text>
<text x="340" y="720" text-anchor="middle" font-size="11" fill="#712b13">롤링 유의미 여부 판단</text>

<rect x="455" y="680" width="165" height="52" rx="8" fill="#faece7" stroke="#993c1d" stroke-width="0.5"/>
<text x="537" y="702" text-anchor="middle" font-size="13" fill="#4a1b0c" font-weight="500">레포조달비용</text>
<text x="537" y="720" text-anchor="middle" font-size="11" fill="#712b13">구간별 가중평균금리</text>

<line x1="142" y1="732" x2="142" y2="760" stroke="#888" stroke-width="1"/>
<line x1="340" y1="732" x2="340" y2="760" stroke="#888" stroke-width="1"/>
<line x1="537" y1="732" x2="537" y2="760" stroke="#888" stroke-width="1"/>
<line x1="142" y1="780" x2="537" y2="780" stroke="#888" stroke-width="1"/>
<line x1="340" y1="780" x2="340" y2="800" stroke="#888" stroke-width="1" marker-end="url(#arrow)"/>

<rect x="170" y="800" width="340" height="52" rx="8" fill="#faeeda" stroke="#ba7517" stroke-width="0.5"/>
<text x="340" y="822" text-anchor="middle" font-size="13" fill="#412402" font-weight="500">최종 수익률 계산</text>
<text x="340" y="840" text-anchor="middle" font-size="11" fill="#633806">롤링 유/무 분기 → 순수익률</text>

<!-- Phase 5 -->
<line x1="40" y1="878" x2="640" y2="878" stroke="#ccc" stroke-width="0.5" stroke-dasharray="4 3"/>
<text x="40" y="896" font-size="12" fill="#666" font-weight="600">Phase 5 — 출력 (output/)</text>
<line x1="40" y1="901" x2="640" y2="901" stroke="#e0e0e0" stroke-width="0.5"/>

<line x1="340" y1="852" x2="340" y2="912" stroke="#888" stroke-width="1" marker-end="url(#arrow)"/>

<rect x="60" y="912" width="165" height="44" rx="8" fill="#eaf3de" stroke="#3b6d11" stroke-width="0.5"/>
<text x="142" y="938" text-anchor="middle" font-size="13" fill="#173404" font-weight="500">수익률 비교표</text>

<rect x="257" y="912" width="166" height="44" rx="8" fill="#eaf3de" stroke="#3b6d11" stroke-width="0.5"/>
<text x="340" y="938" text-anchor="middle" font-size="13" fill="#173404" font-weight="500">시장동향 그래프</text>

<rect x="455" y="912" width="165" height="44" rx="8" fill="#eaf3de" stroke="#3b6d11" stroke-width="0.5"/>
<text x="537" y="938" text-anchor="middle" font-size="13" fill="#173404" font-weight="500">최종 제안서</text>
</svg>
